<?xml version="1.0" encoding="UTF-8" standalone="no"?>
<!-- Created with Inkscape (http://www.inkscape.org/) -->

<svg
   width="64mm"
   height="64mm"
   viewBox="0 0 64 64"
   version="1.1"
   id="svg1"
   xml:space="preserve"
   inkscape:version="1.3 (0e150ed6c4, 2023-07-21)"
   sodipodi:docname="logo.svg"
   xmlns:inkscape="http://www.inkscape.org/namespaces/inkscape"
   xmlns:sodipodi="http://sodipodi.sourceforge.net/DTD/sodipodi-0.dtd"
   xmlns="http://www.w3.org/2000/svg"
   xmlns:svg="http://www.w3.org/2000/svg"><sodipodi:namedview
     id="namedview1"
     pagecolor="#ffffff"
     bordercolor="#000000"
     borderopacity="0.25"
     inkscape:showpageshadow="2"
     inkscape:pageopacity="0.0"
     inkscape:pagecheckerboard="0"
     inkscape:deskcolor="#d1d1d1"
     inkscape:document-units="mm"
     inkscape:zoom="4.0970528"
     inkscape:cx="151.45033"
     inkscape:cy="72.125016"
     inkscape:window-width="1920"
     inkscape:window-height="1009"
     inkscape:window-x="1912"
     inkscape:window-y="-8"
     inkscape:window-maximized="1"
     inkscape:current-layer="layer1"
     showgrid="true"><inkscape:grid
       id="grid1"
       units="mm"
       originx="0"
       originy="0"
       spacingx="0.99999997"
       spacingy="0.99999997"
       empcolor="#0099e5"
       empopacity="0.30196078"
       color="#0099e5"
       opacity="0.14901961"
       empspacing="5"
       dotted="false"
       gridanglex="30"
       gridanglez="30"
       visible="true" /></sodipodi:namedview><defs
     id="defs1" /><g
     inkscape:groupmode="layer"
     id="layer2"
     inkscape:label="background"
     style="display:inline;opacity:1;fill:none"><rect
       style="opacity:1;fill:#ffffff;stroke-width:0.264583"
       id="rect2"
       width="64"
       height="64"
       x="0"
       y="0"
       rx="9.2347889"
       ry="9.2347889" /></g><g
     inkscape:label="Layer 1"
     inkscape:groupmode="layer"
     id="layer1"><g
       style="display:inline;opacity:0.3;fill:none"
       id="g3"
       transform="matrix(1.8870823,0,0,1.9062169,15.420646,2.3794482)"
       inkscape:label="g2"><path
         d="m 15.813392,14.78784 -1.7174,-1.7031 c -0.7893,-0.7827 -1.184,-1.1741 -1.6384,-1.3209 -0.3997,-0.1292 -0.8299,-0.1292 -1.22968,0 -0.45437,0.1468 -0.84905,0.5382 -1.6384,1.3209 l -3.99889,4.0276 m 10.22277,-2.3245 0.3413,-0.3386 c 0.806,-0.7992 1.2089,-1.1988 1.6713,-1.3446 0.4066,-0.1283 0.8435,-0.1233 1.2471,0.0143 0.4588,0.1565 0.8525,0.5652 1.6398,1.3827 l 0.8358,0.8486 m -5.7353,-0.5624 3.9553,4.0251 m -6.22,-15.9627997 h -4.8 c -1.12011,0 -1.68016,0 -2.10798,0.21799 -0.37632,0.19174 -0.68229,0.4977 -0.87403,0.87403 -0.21799,0.42782 -0.21799,0.98788 -0.21799,2.10798 V 15.65014 c 0,0.6466 0,1.1066 0.04193,1.4622 m 0,0 c 0.03071,0.2604 0.0839,0.4649 0.17606,0.6458 0.19174,0.3763 0.49771,0.6823 0.87403,0.874 0.42782,0.218 0.98787,0.218 2.10798,0.218 h 9.6 c 1.1201,0 1.6802,0 2.108,-0.218 0.3763,-0.1917 0.6823,-0.4977 0.874,-0.874 0.218,-0.4278 0.218,-0.9879 0.218,-2.108 v -4.8 m -4,-8.9999997 2.5,2.5 m 0,0 2.5,2.5 m -2.5,-2.5 2.5,-2.5 m -2.5,2.5 -2.5,2.5"
         stroke="#000000"
         stroke-width="2"
         stroke-linecap="round"
         stroke-linejoin="round"
         id="path1-2"
         inkscape:label="path2"
         style="stroke:#1976d2;stroke-opacity:1" /></g><g
       style="fill:none"
       id="g1"
       transform="matrix(1.9971257,0,0,2.0020524,-1.986718,17.998518)"><rect
         style="opacity:1;fill:#ffffff;stroke-width:0.148867"
         id="rect1"
         width="15.397759"
         height="15.433726"
         x="4.3299918"
         y="4.1950569" /><path
         d="m 14.2639,15.9375 -1.6681,-1.6541 c -0.8049,-0.7983 -1.2074,-1.1974 -1.6692,-1.3433 -0.4062,-0.1283 -0.8428,-0.1236 -1.24612,0.0135 -0.4586,0.1559 -0.85234,0.5636 -1.6398,1.379 L 4.04409,18.2801 M 14.2639,15.9375 14.6053,15.599 c 0.8059,-0.7992 1.2088,-1.1988 1.6712,-1.3447 0.4066,-0.1283 0.8435,-0.1232 1.2471,0.0144 0.4588,0.1564 0.8525,0.5652 1.6398,1.3827 L 20,16.4934 m -5.7361,-0.5559 4.0111,4.019 m 0,0 C 17.9176,20 17.4543,20 16.8,20 H 7.2 C 6.07989,20 5.51984,20 5.09202,19.782 4.71569,19.5903 4.40973,19.2843 4.21799,18.908 4.12796,18.7313 4.07512,18.5321 4.04409,18.2801 M 18.275,19.9565 c 0.2543,-0.0309 0.4551,-0.0838 0.633,-0.1745 0.3763,-0.1917 0.6823,-0.4977 0.874,-0.874 C 20,18.4802 20,17.9201 20,16.8 V 16.4934 M 4.04409,18.2801 C 4,17.9221 4,17.4575 4,16.8 V 7.2 C 4,6.0799 4,5.51984 4.21799,5.09202 4.40973,4.71569 4.71569,4.40973 5.09202,4.21799 5.51984,4 6.07989,4 7.2,4 h 9.6 c 1.1201,0 1.6802,0 2.108,0.21799 0.3763,0.19174 0.6823,0.4977 0.874,0.87403 C 20,5.51984 20,6.0799 20,7.2 v 9.2934 M 17,8.99989 c 0,1.10461 -0.8954,2.00001 -2,2.00001 -1.1046,0 -2,-0.8954 -2,-2.00001 0,-1.10457 0.8954,-2 2,-2 1.1046,0 2,0.89543 2,2 z"
         stroke="#000000"
         stroke-width="2"
         stroke-linecap="round"
         stroke-linejoin="round"
         id="path1"
         style="fill:none;stroke:#1976d2;stroke-opacity:1" /></g></g></svg>
